<svg xmlns="http://www.w3.org/2000/svg" width="215.339" height="24.613" viewBox="0 0 215.339 24.613">
  <g id="LOGO_White" transform="translate(0.5 0.5)">
    <path id="Unión_2" data-name="Unión 2" d="M74.013,23.613l4.879-5.878v1.131H95.234v4.748Zm24.844-11.9c0-6.4,5.161-11.143,12.159-11.143a13.473,13.473,0,0,1,9.354,3.892L116.5,8.919A7.417,7.417,0,0,0,111.114,6a5.4,5.4,0,0,0-5.387,5.649,5.426,5.426,0,0,0,5.387,5.681,8.274,8.274,0,0,0,5.386-2.543l3.87,4.018a13.835,13.835,0,0,1-9.579,4.237C103.921,23.043,98.857,18.209,98.857,11.712ZM199.164,22.76V15.918L190.875.758h6.709l4.934,8.976L207.324.758H214l-8.127,15.034V22.76Zm-29.156,0V18.648L181.231,5.842H170.394V.758h19.771V4.9L178.941,17.675h11.45V22.76Zm-7.676,0-1.322-3.515h-9.127l-1.355,3.515h-6.9l9.643-22h6.9l9.321,22Zm-8.579-8.286h5.483l-2.709-7.188ZM135.658,22.76l-3-5.932h-3.548V22.76H122.4v-22h10.546c6.063,0,9.547,2.824,9.547,7.815a7.458,7.458,0,0,1-3.806,7l4.58,7.188Zm-6.547-10.954h3.838c2,0,3.161-1.067,3.161-3.045,0-1.915-1.161-2.982-3.161-2.982h-3.838ZM61.856,22.76V14.1L53.245.79h1.176l7.978,12.3L70.44.79h1.177l-8.7,13.293V22.76Zm-26.318,0v-.266L49.271,1.763H36.005V.79H50.959v.236L37.188,21.788H51.5v.973Zm-2.758,0-2.838-6.376H17.524l-2.79,6.376H13.606L23.179.79h.914L33.925,22.76ZM17.938,15.422H29.522l-5.87-13.13ZM0,22.76V.79H1.054v21H12.084v.973ZM74.013,7.97H86.588L82.659,12.7H78.892V14.8l-4.879,5.878Zm8.646,7.673,3.929-4.735h3.768V8.818l4.879-5.878v12.7Zm7.7-10.9H74.013V0H95.234L90.356,5.878Z" stroke="rgba(0,0,0,0)" stroke-width="1"/>
  </g>
</svg>
